<svg xmlns="http://www.w3.org/2000/svg" viewBox="0 0 100 100">
  <!-- Outer badge shape -->
  <polygon points="50,2 92,22 92,62 50,82 8,62 8,22" fill="#0a0a0a"/>
  <!-- Letter T -->
  <rect x="18" y="18" width="30" height="8" fill="#ffffff"/>
  <rect x="28" y="26" width="10" height="20" fill="#ffffff"/>
  <!-- Letter S -->
  <polygon points="42,32 62,32 62,40 50,40 50,48 62,48 62,60 42,60 42,52 54,52 54,44 42,44" fill="#ffffff"/>
  <!-- Letter J -->
  <rect x="66" y="18" width="10" height="8" fill="#ffffff"/>
  <rect x="72" y="18" width="8" height="38" fill="#ffffff"/>
  <rect x="62" y="50" width="18" height="8" fill="#ffffff"/>
  <rect x="62" y="44" width="8" height="14" fill="#ffffff"/>
  <!-- Red dot -->
  <circle cx="64" cy="74" r="7" fill="#FF3B30"/>
</svg>
